# xmcd
#
# Track frame offsets:
#	150
#	11942
#	26534
#	40606
#	53621
#	73296
#	85026
#	100650
#	110972
#	122248
#	134455
#
# Disc length: 2019 seconds
#
# Revision: 1
# Processed by: cddbd v1.5.2PL0 Copyright (c) Steve Scherf et al.
# Submitted via: audiograbber 1.83.01
#
DISCID=9507e10b
DTITLE=Heike Mildner - verloren - gefunden
DYEAR=2017
DGENRE=Deutsch
TTITLE0=Heisi, der Seefahrer, erzählt
TTITLE1=Landschaft
TTITLE2=Aufm Acker
TTITLE3=Heilige Kuh
TTITLE4=Bützow
TTITLE5=Pendler im Winter
TTITLE6=Tage wie dieser
TTITLE7=Ist mein Leben
TTITLE8=Der letzte Grund
TTITLE9=Traum und Wirklichkeit 10
TTITLE10=Wohin ich will
EXTD=
EXTT0=
EXTT1=
EXTT2=
EXTT3=
EXTT4=
EXTT5=
EXTT6=
EXTT7=
EXTT8=
EXTT9=
EXTT10=
PLAYORDER=
